<svg width="44" height="44" viewBox="0 0 44 44" fill="none" xmlns="http://www.w3.org/2000/svg">
<path d="M19.5187 34.1843C22.7728 34.1837 25.9332 33.0943 28.4965 31.0897L36.5559 39.149L39.1482 36.5567L31.0889 28.4973C33.0946 25.9337 34.1846 22.7726 34.1854 19.5177C34.1854 11.4308 27.6055 4.851 19.5187 4.851C11.4319 4.851 4.85205 11.4308 4.85205 19.5177C4.85205 27.6045 11.4319 34.1843 19.5187 34.1843ZM19.5187 8.51766C25.5852 8.51766 30.5187 13.4512 30.5187 19.5177C30.5187 25.5842 25.5852 30.5177 19.5187 30.5177C13.4522 30.5177 8.51872 25.5842 8.51872 19.5177C8.51872 13.4512 13.4522 8.51766 19.5187 8.51766Z" fill="#BABABA"/>
</svg>
