<svg width="54" height="54" viewBox="0 0 54 54" fill="none" xmlns="http://www.w3.org/2000/svg">
<path d="M27 8.66669C25.187 8.66669 23.4147 9.2043 21.9073 10.2115C20.3998 11.2188 19.2249 12.6504 18.5311 14.3254C17.8373 16.0004 17.6558 17.8435 18.0095 19.6217C18.3632 21.3998 19.2362 23.0332 20.5182 24.3152C21.8002 25.5971 23.4335 26.4702 25.2117 26.8239C26.9898 27.1776 28.8329 26.9961 30.5079 26.3022C32.1829 25.6084 33.6146 24.4335 34.6218 22.9261C35.6291 21.4186 36.1667 19.6463 36.1667 17.8334C36.1667 15.4022 35.2009 13.0706 33.4818 11.3515C31.7627 9.63246 29.4312 8.66669 27 8.66669ZM27 23.3334C25.9122 23.3334 24.8488 23.0108 23.9444 22.4064C23.0399 21.8021 22.3349 20.9431 21.9187 19.9381C21.5024 18.9331 21.3935 17.8273 21.6057 16.7604C21.8179 15.6935 22.3417 14.7135 23.1109 13.9443C23.8801 13.1751 24.8601 12.6513 25.927 12.439C26.9939 12.2268 28.0998 12.3357 29.1048 12.752C30.1098 13.1683 30.9687 13.8732 31.5731 14.7777C32.1774 15.6822 32.5 16.7456 32.5 17.8334C32.5 19.292 31.9205 20.691 30.8891 21.7224C29.8576 22.7539 28.4587 23.3334 27 23.3334ZM43.5 43.5V41.6667C43.5 38.2631 42.1479 34.9989 39.7412 32.5921C37.3345 30.1854 34.0703 28.8334 30.6667 28.8334H23.3333C19.9297 28.8334 16.6655 30.1854 14.2588 32.5921C11.8521 34.9989 10.5 38.2631 10.5 41.6667V43.5H14.1667V41.6667C14.1667 39.2355 15.1324 36.904 16.8515 35.1849C18.5706 33.4658 20.9022 32.5 23.3333 32.5H30.6667C33.0978 32.5 35.4294 33.4658 37.1485 35.1849C38.8676 36.904 39.8333 39.2355 39.8333 41.6667V43.5H43.5Z" fill="#BABABA"/>
</svg>
