<svg width="54" height="54" viewBox="0 0 54 54" fill="none" xmlns="http://www.w3.org/2000/svg">
<path d="M14.1667 45.333H39.8333C40.8058 45.333 41.7384 44.9467 42.4261 44.2591C43.1137 43.5714 43.5 42.6388 43.5 41.6663V25.1663C43.5014 24.925 43.4551 24.6859 43.3639 24.4625C43.2727 24.2391 43.1382 24.036 42.9683 23.8647L28.3017 9.19799C27.9582 8.85653 27.4935 8.66487 27.0092 8.66487C26.5248 8.66487 26.0602 8.85653 25.7167 9.19799L11.05 23.8647C10.8768 24.0345 10.739 24.2369 10.6445 24.4604C10.5501 24.6838 10.501 24.9238 10.5 25.1663V41.6663C10.5 42.6388 10.8863 43.5714 11.5739 44.2591C12.2616 44.9467 13.1942 45.333 14.1667 45.333ZM23.3333 41.6663V32.4997H30.6667L30.6667 41.6663H23.3333ZM14.1667 25.918L27 13.0847L39.8333 25.918V41.6663H34.3333V32.4997C34.3333 31.5272 33.947 30.5946 33.2594 29.9069C32.5718 29.2193 31.6391 28.833 30.6667 28.833H23.3333C22.3609 28.833 21.4282 29.2193 20.7406 29.9069C20.053 30.5946 19.6667 31.5272 19.6667 32.4997V41.6663H14.1667L14.1667 25.918Z" fill="#BABABA"/>
</svg>
