<svg width="54" height="54" viewBox="0 0 54 54" fill="none" xmlns="http://www.w3.org/2000/svg">
<path d="M41.6665 10.5L12.3332 10.5C10.311 10.5 8.6665 12.1445 8.6665 14.1667L8.6665 39.8333C8.6665 41.8555 10.311 43.5 12.3332 43.5H41.6665C43.6887 43.5 45.3332 41.8555 45.3332 39.8333V14.1667C45.3332 12.1445 43.6887 10.5 41.6665 10.5ZM41.6683 21.5C41.6665 21.5 41.6665 21.5 41.6683 21.5H40.8158L35.9263 14.1667H41.6665L41.6683 21.5ZM22.4825 21.5L17.593 14.1667H22.3523L27.2418 21.5H22.4825ZM31.6492 21.5L26.7597 14.1667L31.519 14.1667L36.4085 21.5H31.6492ZM12.3332 14.1667H13.1857L18.0752 21.5H12.3332V14.1667ZM12.3332 39.8333L12.3332 25.1667H41.6665L41.6702 39.8333H12.3332Z" fill="#BABABA"/>
<path d="M23.3332 38L33.4165 32.5L23.3332 27V38Z" fill="#BABABA"/>
</svg>
