<svg width="54" height="54" viewBox="0 0 54 54" fill="none" xmlns="http://www.w3.org/2000/svg">
<path d="M26.9999 13.4242C25.0023 11.5874 22.3876 10.5679 19.6739 10.5678C18.2375 10.5693 16.8157 10.8549 15.4901 11.408C14.1645 11.9611 12.9614 12.7709 11.95 13.7908C7.63622 18.123 7.63805 24.899 11.9537 29.2128L25.3957 42.6548C25.7074 43.203 26.3087 43.5568 26.9999 43.5568C27.2837 43.5541 27.5629 43.4848 27.815 43.3546C28.0672 43.2244 28.2853 43.0368 28.4519 42.807L42.0461 29.2128C46.3617 24.8972 46.3617 18.123 42.0424 13.7835C41.0315 12.7655 39.8294 11.9573 38.5051 11.4055C37.1808 10.8536 35.7605 10.5689 34.3259 10.5678C31.6122 10.5683 28.9977 11.5877 26.9999 13.4242ZM39.4501 16.3758C42.3155 19.256 42.3174 23.755 39.4537 26.6205L26.9999 39.0743L14.546 26.6205C11.6824 23.755 11.6842 19.256 14.5424 16.3832C15.9357 14.9972 17.758 14.2345 19.6739 14.2345C21.5897 14.2345 23.4047 14.9972 24.7871 16.3795L25.7037 17.2962C25.8738 17.4666 26.0759 17.6018 26.2983 17.694C26.5207 17.7862 26.7591 17.8337 26.9999 17.8337C27.2407 17.8337 27.4791 17.7862 27.7015 17.694C27.9239 17.6018 28.1259 17.4666 28.296 17.2962L29.2127 16.3795C31.9847 13.613 36.6817 13.6203 39.4501 16.3758Z" fill="#BABABA"/>
</svg>
