<svg width="32" height="32" viewBox="0 0 32 32" fill="none" xmlns="http://www.w3.org/2000/svg">
<path d="M15.9999 6.12668C14.5471 4.79082 12.6455 4.04941 10.6719 4.04935C9.62728 4.05043 8.59319 4.25809 7.62914 4.66037C6.66509 5.06265 5.79011 5.65161 5.05456 6.39335C1.91723 9.54401 1.91856 14.472 5.05723 17.6093L14.8332 27.3853C15.0599 27.784 15.4972 28.0413 15.9999 28.0413C16.2063 28.0393 16.4093 27.989 16.5927 27.8943C16.7761 27.7995 16.9348 27.6631 17.0559 27.496L26.9426 17.6093C30.0812 14.4707 30.0812 9.54401 26.9399 6.38801C26.2047 5.64764 25.3304 5.05988 24.3673 4.65852C23.4042 4.25717 22.3713 4.05015 21.3279 4.04935C19.3543 4.04967 17.4528 4.79104 15.9999 6.12668ZM25.0546 8.27335C27.1386 10.368 27.1399 13.64 25.0572 15.724L15.9999 24.7813L6.94256 15.724C4.85989 13.64 4.86123 10.368 6.93989 8.27868C7.95323 7.27068 9.27856 6.71601 10.6719 6.71601C12.0652 6.71601 13.3852 7.27068 14.3906 8.27601L15.0572 8.94268C15.1809 9.06661 15.3279 9.16492 15.4896 9.23201C15.6514 9.29909 15.8248 9.33361 15.9999 9.33361C16.175 9.33361 16.3484 9.29909 16.5102 9.23201C16.6719 9.16492 16.8188 9.06661 16.9426 8.94268L17.6092 8.27601C19.6252 6.26401 23.0412 6.26935 25.0546 8.27335Z" fill="white"/>
</svg>
