<svg width="159" height="132" viewBox="0 0 159 132" fill="none" xmlns="http://www.w3.org/2000/svg">
<path fill-rule="evenodd" clip-rule="evenodd" d="M7.8267 19.7912C12.199 22.8731 13.2277 27.0678 13.1952 28.7799V62.1659C12.4138 65.4848 8.86706 66.763 7.8267 67.0059C11.4182 68.1912 12.9021 71.5166 13.1952 73.0312V89.1316C12.2576 100.748 9.22554 108.92 7.8267 111.554H0.798584V132C5.83715 124.125 9.45256 115.669 11.73 115.307H44.7207C51.6718 116.591 52.5718 129.396 54.1884 132V111.554H46.868V73.0312C47.9612 69.0012 50.3818 67.3352 51.4555 67.0059C47.7855 64.9514 46.868 61.7379 46.868 60.388V28.7799C46.868 24.0387 49.7235 21.932 53.31 19.7912H44.7207C41.6754 19.2382 39.2222 15.8733 38.3763 14.2599C35.9557 18.6849 33.3984 19.7912 32.4224 19.7912H7.8267ZM39.5476 22.8538H20.6121V83.0079C20.6121 89.2636 19.5189 103.731 15.1462 111.554H39.5476V22.8538Z" fill="white"/>
<path d="M60.0141 19.7912C64.2555 23.4579 65.402 29.8125 65.4451 32.5315V60.388C64.2727 64.868 61.2784 66.6666 59.9279 67.0059C63.583 68.9832 65.129 71.8466 65.4451 73.0312V107.601C64.3556 111.404 61.313 114.323 59.9279 115.307H68.8097C72.1345 116.31 74.2695 118.21 74.9214 119.034C77.2031 116.052 79.4577 115.307 80.2998 115.307H97.3312V99.9019C93.4197 106.829 81.4135 110.556 75.8993 111.554V67.9873H79.0774C84.6188 68.3831 88.3401 70.5712 89.5082 71.6158V60.388C86.2486 63.5646 81.1962 64.3587 79.0774 64.3587H75.8993V23.6323H77.8551H79.8108C86.33 26.5351 90.0786 29.5303 91.138 31.9493L93.3382 19.002H79.0774C76.8609 19.002 75.6548 16.418 75.3289 15.1261C73.6339 18.2268 70.7111 19.5281 69.4616 19.7912H60.0141Z" fill="white"/>
<path d="M102.734 19.002C106.162 21.347 108.122 27.0552 108.673 29.6162V62.0828C107.791 65.6021 105.611 66.8312 104.632 67.0059C107.081 68.619 108.346 73.1116 108.673 75.1562V122.617L144.061 53.1607V113.261C142.788 115.888 139.857 118.204 138.551 119.034H159C154.837 116.398 153.306 114.087 153.061 113.261V78.9977C153.698 74.5366 155.939 72.2176 156.98 71.6158C154.188 70.1358 153.204 64.9743 153.061 62.5785V10.9665L117.979 87.0526V25.4652C117.979 22.2929 120.469 19.8346 121.714 19.002H102.734Z" fill="white"/>
<path d="M116.142 0H125.265V7.31092C125.265 13.7374 134.939 13.0286 134.755 7.55876V0H144.061V2.53378C144.061 4.17283 143.744 5.81593 143.003 7.27767C135.396 22.2733 123.324 21.1553 116.983 7.05458C116.388 5.73067 116.142 4.27456 116.142 2.82294V0Z" fill="white"/>
</svg>
